<svg width="57" height="56" viewBox="0 0 57 56" fill="none" xmlns="http://www.w3.org/2000/svg">
<g clip-path="url(#clip0_277_35473)">
<rect x="0.5" width="56" height="56" rx="16" fill="white"/>
<g clip-path="url(#clip1_277_35473)">
<path fill-rule="evenodd" clip-rule="evenodd" d="M21.6638 28.0001C21.6638 27.238 21.7903 26.5073 22.0163 25.822L18.0618 22.8022C17.2911 24.367 16.8569 26.1302 16.8569 28.0001C16.8569 29.8684 17.2906 31.6305 18.0602 33.1942L22.0125 30.1686C21.7887 29.4865 21.6638 28.7585 21.6638 28.0001Z" fill="#FBBC05"/>
<path fill-rule="evenodd" clip-rule="evenodd" d="M28.6069 21.0666C30.2625 21.0666 31.758 21.6533 32.933 22.6133L36.3512 19.1999C34.2682 17.3866 31.5978 16.2666 28.6069 16.2666C23.9635 16.2666 19.9727 18.9221 18.0618 22.8021L22.0162 25.8218C22.9273 23.0559 25.5246 21.0666 28.6069 21.0666Z" fill="#EB4335"/>
<path fill-rule="evenodd" clip-rule="evenodd" d="M28.6069 34.9334C25.5246 34.9334 22.9273 32.9441 22.0162 30.1782L18.0618 33.1974C19.9727 37.078 23.9635 39.7334 28.6069 39.7334C31.4728 39.7334 34.2089 38.7158 36.2625 36.8092L32.5089 33.9073C31.4498 34.5745 30.1162 34.9334 28.6069 34.9334Z" fill="#34A853"/>
<path fill-rule="evenodd" clip-rule="evenodd" d="M39.8228 28C39.8228 27.3067 39.716 26.56 39.5558 25.8667H28.6069V30.4H34.9092C34.5941 31.9456 33.7363 33.1339 32.509 33.9072L36.2626 36.8091C38.4198 34.807 39.8228 31.8246 39.8228 28Z" fill="#4285F4"/>
</g>
</g>
<rect x="1" y="0.5" width="55" height="55" rx="15.5" stroke="#79747E"/>
<defs>
<clipPath id="clip0_277_35473">
<rect x="0.5" width="56" height="56" rx="16" fill="white"/>
</clipPath>
<clipPath id="clip1_277_35473">
<rect width="24" height="24" fill="white" transform="translate(16.5 16)"/>
</clipPath>
</defs>
</svg>
